<?xml version="1.0" encoding="utf-8"?>
<!-- Generator: Adobe Illustrator 18.1.1, SVG Export Plug-In . SVG Version: 6.00 Build 0)  -->
<svg version="1.1" id="Слой_1" xmlns="http://www.w3.org/2000/svg" xmlns:xlink="http://www.w3.org/1999/xlink" x="0px" y="0px"
	 viewBox="0 0 1920 137.3" enable-background="new 0 0 1920 137.3" xml:space="preserve">
<g>
	<g>
		<g>
			<g>
				<path fill="#4A617D" d="M567.4,84.7c-1.4-2.6-4-4.4-6.9-5l-2.2-13.6c-0.2-1.1-1-2.1-2.1-2.5l-58.8-22.9l-1.6-0.6
					c-1.1-0.4-2.4-0.2-3.3,0.5l-1.4,1.1L442.6,82c-1.4,1.2-1.6,3.2-0.4,4.6c0.4,0.4,0.8,0.8,1.3,1l19.6,7.6l6.7,41.7l77.9-12.6
					l-6.7-41.7l11.7-9.7l1.3,7.9c-4.8,2.6-6.5,8.6-3.9,13.4c2.6,4.8,8.6,6.5,13.4,3.9C568.2,95.5,570,89.5,567.4,84.7z M540.2,119.1
					l-64.9,10.5L470.2,98l33.7,13.1c1.1,0.4,2.4,0.2,3.3-0.5l27.9-23.1L540.2,119.1z M504.5,104.3l-53.4-20.8l44.1-36.6l53.4,20.8
					L504.5,104.3z M559.2,92.7c-1.8,0.3-3.5-0.9-3.8-2.7c-0.3-1.8,0.9-3.5,2.7-3.8c1.8-0.3,3.5,0.9,3.8,2.7
					C562.2,90.7,561,92.4,559.2,92.7z"/>
			</g>
		</g>
		<g>
			<g>
				<path fill="#4A617D" d="M450.4,120.3l-19.5,3.2c-1.8,0.3-3,2-2.7,3.8c0,0,0,0,0,0c0.3,1.8,2,3,3.8,2.7c0,0,0,0,0,0l19.5-3.2
					c1.8-0.3,3-2,2.7-3.8C453.9,121.2,452.2,120,450.4,120.3z"/>
			</g>
		</g>
		<g>
			<g>
				<circle fill="#4A617D" cx="415.3" cy="129.3" r="6.6"/>
			</g>
		</g>
		<g>
			<g>
				<path fill="#4A617D" d="M580.8,102.5C580.8,102.5,580.8,102.5,580.8,102.5l-19.5,3.2c-1.8,0.3-3,2-2.7,3.8c0.3,1.8,2,3,3.8,2.7
					l19.5-3.2c1.8-0.3,3-2,2.7-3.8c0,0,0,0,0,0C584.3,103.4,582.6,102.2,580.8,102.5z"/>
			</g>
		</g>
		<g>
			<g>
				<circle fill="#4A617D" cx="597.5" cy="103.1" r="6.6"/>
			</g>
		</g>
		<g>
			<g>
				<path fill="#4A617D" d="M490.4,17.2c-1.8,0.3-3,2-2.7,3.8l1.6,9.7c0.3,1.8,2,3,3.8,2.7c1.8-0.3,3-2,2.7-3.8l-1.6-9.7
					C493.9,18.1,492.2,16.9,490.4,17.2z"/>
			</g>
		</g>
		<g>
			<g>
				<circle fill="#4A617D" cx="566" cy="31.6" r="6.6"/>
			</g>
		</g>
		<g>
			<g>
				<path fill="#4A617D" d="M559.8,40.3c-1.5-1.1-3.5-0.8-4.6,0.7c0,0,0,0,0,0l-5.4,7.5c-1.1,1.5-0.7,3.5,0.7,4.6
					c0.7,0.5,1.6,0.7,2.4,0.6c0.9-0.1,1.6-0.6,2.1-1.3l5.4-7.5C561.6,43.4,561.3,41.3,559.8,40.3z"/>
			</g>
		</g>
		<g>
			<g>
				<path fill="#4A617D" d="M444,65.7l-7.5-5.4c-1.5-1-3.5-0.7-4.6,0.8c-1,1.5-0.7,3.5,0.7,4.5l7.5,5.4c1.5,1,3.5,0.7,4.6-0.8
					C445.7,68.7,445.4,66.7,444,65.7z"/>
			</g>
		</g>
		<g>
			<g>
				<path fill="#4A617D" d="M424.3,41.2c-5.4,0.9-10.4-2.8-11.3-8.2c-0.3-1.8-2-3-3.8-2.7s-3,2-2.7,3.8c0.9,5.4-2.8,10.4-8.2,11.3
					c-1.8,0.3-3,2-2.7,3.8c0.3,1.8,2,3,3.8,2.7c5.4-0.9,10.4,2.8,11.3,8.2c0.3,1.8,2,3,3.8,2.7c1.8-0.3,3-2,2.7-3.8
					c-0.9-5.4,2.8-10.4,8.2-11.3c1.8-0.3,3-2,2.7-3.8C427.8,42.1,426.1,40.9,424.3,41.2z M412.4,49.9c-1.2-1.1-2.5-2.1-3.9-2.8
					c1.1-1.2,2.1-2.5,2.8-3.9c1.2,1.1,2.5,2.1,3.9,2.8C414.1,47.2,413.2,48.5,412.4,49.9z"/>
			</g>
		</g>
		<g>
			<g>
				<path fill="#4A617D" d="M1560.4,123.3c-4.8-1.4-7.5-6.3-6.2-11.1c0.5-1.6-0.5-3.2-2.1-3.7c-1.6-0.5-3.2,0.5-3.7,2.1
					c-1.4,4.8-6.3,7.5-11.1,6.2c-1.6-0.5-3.2,0.5-3.7,2.1c-0.5,1.6,0.5,3.2,2.1,3.7c4.8,1.4,7.5,6.3,6.2,11.1
					c-0.5,1.6,0.5,3.2,2.1,3.7s3.2-0.5,3.7-2.1c1.4-4.8,6.3-7.5,11.1-6.2c1.6,0.5,3.2-0.5,3.7-2.1
					C1562.9,125.4,1561.9,123.7,1560.4,123.3z M1547.2,125.8c-0.5-1.4-1.2-2.6-2.1-3.8c1.4-0.5,2.6-1.2,3.8-2.1
					c0.5,1.4,1.2,2.6,2.1,3.8C1549.7,124.2,1548.4,124.9,1547.2,125.8z"/>
			</g>
		</g>
		<g>
			<g>
				<path fill="#4A617D" d="M876.2,16.5c-4.5-2.2-6.3-7.7-4.1-12.1c0.7-1.5,0.1-3.3-1.4-4c-1.5-0.7-3.3-0.1-4,1.4
					c-2.2,4.5-7.7,6.3-12.1,4.1c-1.5-0.7-3.3-0.1-4,1.4s-0.1,3.3,1.4,4c4.5,2.2,6.3,7.7,4.1,12.1c-0.7,1.5-0.1,3.3,1.4,4
					c1.5,0.7,3.3,0.1,4-1.4c2.2-4.5,7.7-6.3,12.1-4.1c1.5,0.7,3.3,0.1,4-1.4S877.7,17.2,876.2,16.5z M862.6,16.6
					c-0.3-1.5-0.7-2.9-1.4-4.2c1.5-0.3,2.9-0.7,4.2-1.4c0.3,1.5,0.7,2.9,1.4,4.2C865.4,15.5,863.9,16,862.6,16.6z"/>
			</g>
		</g>
		<g>
			<g>
				<path fill="#4A617D" d="M1395.1,35.7c-5.4,0.7-10.3-3-11-8.4c-0.2-1.8-1.9-3-3.7-2.8c-1.8,0.2-3,1.9-2.8,3.7
					c0.7,5.4-3,10.3-8.4,11c-1.8,0.2-3,1.9-2.8,3.7c0.2,1.8,1.9,3,3.7,2.8c5.4-0.7,10.3,3,11,8.4c0.2,1.8,1.9,3,3.7,2.8
					c1.8-0.2,3-1.9,2.8-3.7c-0.7-5.4,3-10.3,8.4-11c1.8-0.2,3-1.9,2.8-3.7C1398.5,36.7,1396.8,35.5,1395.1,35.7z M1383,44
					c-1.1-1.1-2.4-2.1-3.8-2.9c1.1-1.1,2.1-2.4,2.9-3.8c1.1,1.1,2.4,2.1,3.8,2.9C1384.7,41.4,1383.8,42.7,1383,44z"/>
			</g>
		</g>
		<g>
			<g>
				<circle fill="#4A617D" cx="887.2" cy="127.1" r="6.6"/>
			</g>
		</g>
		<g>
			<g>
				<circle fill="#4A617D" cx="1474.9" cy="84.4" r="6.6"/>
			</g>
		</g>
		<g>
			<g>
				<circle fill="#4A617D" cx="1704.9" cy="37.4" r="6.6"/>
			</g>
		</g>
		<g>
			<g>
				<circle fill="#4A617D" cx="65.7" cy="53.1" r="6.6"/>
			</g>
		</g>
	</g>
</g>
</svg>
