<svg width="26" height="27" viewBox="0 0 26 27" xmlns="http://www.w3.org/2000/svg">
                    <path d="M1.057 1.046c-.053.048-.07.124-.047.19l8.842 24.188c.024.064.083.11.152.115.07.005.136-.036.17-.094l3.836-7.18c.024-.043.028-.095.01-.142L12.33 13.49l4.442 2.144c.045.022.097.022.145.003l7.523-3.11c.063-.025.104-.086.107-.154v-.003c.004-.07-.035-.134-.1-.164L1.252 1.016c-.062-.03-.14-.017-.193.03z" stroke-width="2" stroke="#b80000" fill="none" fill-rule="evenodd" stroke-linecap="round" stroke-linejoin="round"></path>
                </svg>