<?xml version="1.0" encoding="utf-8"?>
<!-- Generator: Adobe Illustrator 18.1.1, SVG Export Plug-In . SVG Version: 6.00 Build 0)  -->
<svg version="1.1" id="Слой_1" xmlns="http://www.w3.org/2000/svg" xmlns:xlink="http://www.w3.org/1999/xlink" x="0px" y="0px"
	 viewBox="0 0 1386 205.3" enable-background="new 0 0 1386 205.3" xml:space="preserve">
<g>
	<path fill="#4A617C" d="M1386,134.3c-1.8-1.3-0.9-3.4-1.4-5c-5.6-20.2-20-32.8-37.1-43.1c-2-1.2-2.7,0.1-3.2,1.5
		c-0.6,1.6-2.6,3.2,0.3,5c4,2.4,8,4.9,11.5,7.8c9.5,7.8,18.1,16.5,21.1,28.9c2.7,11.1-0.2,20.3-14.2,21.5
		c-8.3,0.8-16.2-1.1-24.1-3.1c-4.1-1-6.3-2.8-7.2-7.3c-1.8-8.7-6-16.3-14-20.9c-4-2.4-8.3-2.4-12,0.9c-3.7,3.4-4.7,8.1-2.5,12.7
		c1.4,3.1,3.6,5.6,6.2,7.7c4.1,3.4,8.6,6.3,13.6,8.3c2.8,1.1,3.3,2.9,2.8,5.4c-1.1,5.5-3.7,10.2-7.8,14.2c-2,2-3.8,2.5-6.6,1.4
		c-7.4-3.1-15.1-5.2-23-6.5c-7.9-1.2-15.9-2.1-23.6,1.3c-8.3,3.6-9.4,11.6-2.4,17.4c3.6,3,7.8,4.3,12.3,4.9
		c13.3,1.9,25.8-1,37.8-6.5c1.5-0.7,2.7-1.9,4.6-1c16.3,7.2,32.2,15,46.7,25.4h13c0.4-2.7-1.9-3.2-3.5-4.2
		c-14.2-9.3-28.9-17.9-44.3-25c-3.3-1.5-4-2.9-1.5-5.7c1.5-1.7,2.4-4,3.7-5.9c1.9-2.7,0.7-7.5,4.3-8.5c3-0.9,6.4,1.3,9.6,1.9
		c8.2,1.5,16.4,2.6,24.7,0.2c8.8-2.6,14.4-8,15.4-17.4c0.1-1.1-0.3-2.4,0.6-3.3V134.3z M1311,132.3c-1.4-1.9-2.8-4.2-0.6-6.3
		c2.2-2.1,4.3-0.6,6.1,1c4.6,3.9,7,9,8.8,15.3C1319.3,139.7,1314.5,136.9,1311,132.3z M1273.6,180c-1.3-0.3-2.6-0.8-3.7-1.3
		c-2.1-1-4.9-2-4.6-4.6c0.3-2.9,3.4-3.4,5.8-3.8c12-2,23.3,1.5,34.5,5.5C1295.2,180.1,1284.7,182.4,1273.6,180z"/>
	<path fill="#4A617C" d="M331.5,140.1c-4.3-4.5-9.8-4.5-15.3-3.3c-3.9,0.8-7.6,2.4-11,4.5c-15.3,9.5-25.6,22.7-28.8,40.7
		c-0.6,3.4-1.9,3.6-4.5,3c-10.2-2.3-16.9-8.3-19.7-18.4c-3.9-13.8-0.3-26.3,6.6-38.2c8.3-14.1,19.6-25.6,32.2-35.9
		c1.5-1.2,4.8-2.3,2.7-4.8c-1.6-2.1-3.5,0.4-5,1.6c-8.2,6.4-15.6,13.5-22.3,21.5c-8.7,10.3-15.9,21.4-18.8,34.8
		c-4.1,19.4,3.7,41.4,26.1,43.7c1.7,0.2,2.4,0.8,2.4,2.5c0.1,4.7,2,9.1,3,13.6h5c-2.3-3.8-3.1-8-3.9-12.3c-0.5-2.5,0.3-3.5,3.1-3.7
		c14.7-1.2,27.6-7,39-16.2c5.5-4.5,10.1-9.8,12.2-16.7C336.2,150.6,336,144.9,331.5,140.1z M325.8,163.8
		c-11,12.7-25.2,19.1-41.6,21.6c-3.6,0.5-4.7-0.4-3.8-4.2c4.2-17.9,15-30.5,31.2-38.6c3-1.5,6.2-2.4,9.6-2.3c6.2,0,9.9,3.6,10,9.9
		C331.4,155.5,329.2,159.9,325.8,163.8z"/>
	<path fill="#4A617C" d="M758,205.3c12.6-11.6,28-15.5,44.6-15.8c6.7-0.1,13.3,0.1,20-0.2c8.1-0.3,11.4-3.9,11.3-12
		c0-0.7,0-1.3-0.1-2c-1.4-16.2,5.7-24.9,21.9-27.1c20.2-2.7,39,2.1,57.2,10.4c9.3,4.2,17.8,9.8,24.7,17.5c0.9,1,3.3,1.9,1,3.9
		c-2.1,1.9-2.8-0.2-3.9-1.3c-14-14.4-31.8-21.5-51-25.4c-9.3-1.9-18.8-2.7-28.3-1c-10.7,1.9-17.5,7.7-18.1,16.3
		c-0.2,2.8,0.5,5.6,0.5,8.4c0.2,10.4-4.8,15.8-15.2,16.3c-12.1,0.5-24.4-0.8-36.4,1.9c-7.8,1.8-15.4,4.2-21.3,10
		C762.7,205.3,760.3,205.3,758,205.3z"/>
	<path fill="#4A617C" d="M0,83.3c0.3-0.1,0.6-0.1,0.9-0.1c1.6,1.7,1.6,3.5,0,5.2l-0.4,0L0,88.3C0,86.6,0,85,0,83.3z"/>
	<path fill="#4A617C" d="M92.2,4.3c-0.3-1.3-0.2-3.5-2.5-2.4c-1.7,0.8-5,0-4.3,3.5c1.6,7.8-3,11.8-9.1,14.7
		c-6.1,2.9-12.6,4.1-19.2,5.3c-5.2,0.9-10.5,1.8-15.7,2.8c-2.4,0.5-4.5,1.6-4.9,4.3c-0.4,3,1.8,4.5,4.1,5.6c1.9,0.9,4,1.7,6,2.5
		c7.9,3.3,14.3,8.4,18.6,16c4.9,8.7,3.7,18-2.9,25.4c-5.2,5.8-12,8.8-19.3,10.9c-3.3,1-5.3,0.6-7.1-3C31.8,82.1,25.3,77,16.8,74.7
		c-7.9-2.1-13.3,0.9-16,8.5c0,1.7,0,3.5,0,5.2c1.3,5.2,5.2,7.9,9.8,9.9c5.8,2.5,11.8,3.4,18.1,3.1c3-0.2,3.8,1,3.5,3.8
		c-0.6,4.6-2.6,8.5-5.5,12.1c-5.8,7.4-13.5,12.4-21.6,16.6c-3,1.5-1.5,3-0.8,4.8c0.8,2.1,1.9,2.8,4.1,1.5c5.2-3,10.4-5.9,15-9.8
		c8.5-7.2,15.6-15.2,15.8-27.1c0-2.2,1.2-2.7,3-3.1c4.7-1,9.3-2.5,13.6-4.7c22-11.3,25.6-34.7,7.8-51.9c-4.1-3.9-8.9-6.8-14.6-9.8
		c3.7-0.6,6.4-1,9.2-1.5c9-1.6,18-3.4,25.8-8.6C91.2,18.7,94.1,11.7,92.2,4.3z M12.1,91.2c-3-1.5-5.5-3.7-3.9-7.5
		c1.6-3.6,4.9-2.9,7.8-2c6.2,2,10.9,5.9,14.3,12.4C23.4,94.8,17.6,94,12.1,91.2z"/>
	<path fill="#4A617C" d="M1157.3,49.5c-1.7-3-4.5-4.8-7.6-6.2c-6.1-2.6-12.5-3.4-19.1-3c-3.3,0.2-4-1.1-3.8-4
		c0.3-5.4,2.5-10,5.7-14.1c5.3-6.9,12.3-11.6,19.7-15.9c1.3-0.7,2.6-1.4,3.9-2.1c1.2-0.7,2.5-1.5,1.8-3.1c-0.8-1.7-2.3-1.1-3.4-0.5
		c-2.7,1.4-5.3,2.8-7.8,4.4c-9.1,5.7-17.3,12.4-21.9,22.5c-2,4.3,0.2,10.5-3.2,12.9c-3.5,2.6-9.1,2.4-13.6,4.4
		c-24.7,10.8-28,36.4-7,53.3c4.6,3.7,9.8,6.1,15.1,9c-2.6,0.4-5.3,0.8-7.9,1.3c-10.1,1.8-20.4,3.1-29.5,8.5
		c-7.5,4.5-10.5,11.1-8.8,18.9c0.4,1.6,0.5,3.8,2.7,3.5c2.6-0.3,1.6-2.5,1.3-4c-0.8-3.8-0.6-7.3,1.7-10.5c2.9-4,7.1-5.9,11.5-7.6
		c8.8-3.3,18.1-4.1,27.3-5.9c3.1-0.6,7.7,0,8.2-4.1c0.4-4.1-4.2-4.6-7.1-5.7c-8.9-3.3-16-8.8-20.9-17c-3.3-5.5-4.5-11.4-2.5-17.7
		c4.1-13,14.7-18.1,26.7-21.5c3.5-1,5.3-0.3,7.2,3.3c4.8,9.2,12.2,15.5,23.2,15.5C1156.6,64.3,1161.1,55.9,1157.3,49.5z
		 M1154.1,56.7c-1.8,4.5-5.7,4.3-9.2,3.3c-7.9-2.3-13.3-7.5-16.7-15.5c7.9-0.7,15-0.2,21.6,3.4C1153.1,49.7,1155.8,52.3,1154.1,56.7
		z"/>
	<path fill="#4A617C" d="M114.1,88.5c0-7.2,0.2-13.4-1.3-19.4c-0.4-1.6-0.8-3.1,1.6-3.1c2.4,0.1,5.8-2.6,6.9,1
		c1.7,5.8,1.2,12-0.3,17.8C120.2,87.6,116.7,86.8,114.1,88.5z"/>
	<path fill="#4A617C" d="M1196.1,120.6c0.1-7.1,0.3-13.4-1.3-19.5c-0.6-2.3,0.1-3.2,2.2-3.1c2.3,0.1,5.8-2.6,6.6,1.7
		c1,5.6,0.9,11.3-0.4,16.9C1202.4,119.4,1199.1,118.8,1196.1,120.6z"/>
	<path fill="#4A617C" d="M128.9,145.1c3.3-6,6.5-11.3,8.2-17.2c0.4-1.3,0.8-3.4,2.9-1.9c2,1.5,6.6,0.7,5.4,4.8
		c-1.6,5.5-4.9,10.2-8.6,14.4C134.6,147.8,131.9,145.5,128.9,145.1z"/>
	<path fill="#4A617C" d="M1201.1,167.1c3.4-5.9,6.6-11.5,8.4-17.8c0.4-1.5,1.3-2.5,2.8-1.3c1.9,1.5,6.4,0.8,5.4,4.5
		c-1.6,5.8-5.1,10.9-9.2,15.2C1206.7,169.6,1203.8,167.5,1201.1,167.1z"/>
	<path fill="#4A617C" d="M85.3,116.5c0.5,0.5,1.3,1.1,1.9,1.8c2.6,2.6,5.4,4.9,8.5,6.9c1.1,0.7,3.4,1.3,1.3,3
		c-1.9,1.6-2.5,5.9-6.1,4.2c-3.9-1.9-6.5-5.6-8.9-9.2C81.1,121.9,83.5,116.7,85.3,116.5z"/>
	<path fill="#4A617C" d="M1190,159.1c-1.7,1.9-3.1,4-5,5.6c-1.5,1.3-2.8-0.5-3.7-1.5c-2.3-2.2-4.3-4.6-6.5-6.9
		c-2.9-3.1,0.3-5,1.4-7.4c0.3-0.7,1.1-0.6,1.7-0.1c3.4,3.5,6.9,6.7,11.2,9C1189.4,158.1,1189.6,158.6,1190,159.1z"/>
	<path fill="#4A617C" d="M466,30.9c-2.4,0.3-4-0.7-4.8-3.1c-0.6-1.7-1.6-3.3-2.1-5c-0.4-1.4-2.8-3.7,0.3-4.2
		c2.1-0.4,5.7-2.9,6.8,1.9c0.6,2.4,1.6,4.7,2.4,7C469.6,30.1,469,31.3,466,30.9z"/>
	<path fill="#4A617C" d="M488.6,25.2c5.2-0.7,5.1,1.8,3.1,5.4c-1.8,3.2-1.8,8.2-7.6,7.4c-1.6-0.2-2.7-0.5-2-2.3
		c1-3.1,2.1-6.3,3.2-9.4C485.8,24.5,487.2,24.7,488.6,25.2z"/>
	<path fill="#4A617C" d="M477,41c1.9-0.6,2.6,0.5,3.1,2.2c0.6,2.1,1.5,4,2,6.1c0.3,1.5,2.6,3.7-0.3,4.4c-2.1,0.6-5.1,1.1-6.3-2.2
		c-0.7-1.7-1.5-3.3-2.2-5C471.1,41.6,471.5,41.1,477,41z"/>
	<path fill="#4A617C" d="M151.6,83.9c-2.9,0.4-3.2-1-2.3-3.5c0.8-2,1.4-4.1,2.1-6.1c1.1-3.1,5.1-4.5,7.7-2.8
		c0.4,0.2,0.7,0.7,0.8,1.1C160.8,75.7,154.8,83.9,151.6,83.9z"/>
	<path fill="#4A617C" d="M1176.9,122.9c1.7-0.6,2.5,0.3,3,1.7c0.7,2.2,1.6,4.4,2.2,6.6c0.4,1.4,2.2,3.5,0,4.2
		c-2.1,0.6-5,1.5-6.5-1.7c-0.8-1.7-1.5-3.3-2.3-5C1170.9,123.3,1171,123.1,1176.9,122.9z"/>
	<path fill="#4A617C" d="M1190,133.4c3.3,0.3,6.5-1.9,7.8,0c2.1,3,2.9,7,4.1,10.6c0.3,0.9-0.2,1.7-1.2,1.7c-2.1-0.2-4.8,1.2-6.1-1.8
		C1193.2,140.6,1191.8,137.4,1190,133.4z"/>
	<path fill="#4A617C" d="M101.5,105.6c-2.2,0.3-3.8-0.4-4.5-2.8c-0.5-1.6-1.6-3-1.9-4.6c-0.3-1.6-3.5-3.7-0.3-4.7
		c2.3-0.7,6.3-3,7.4,2.4c0.4,2.1,1.2,4.1,2.1,6.1C105.7,105.2,104.4,105.9,101.5,105.6z"/>
	<path fill="#4A617C" d="M113.1,113.6c3,0.1,6.3-2.2,7.8-0.1c2.1,3.1,2.9,7.2,4,11c0.3,1-0.9,1.2-1.7,1.1c-2-0.2-4.5,1-5.6-1.7
		C116.1,120.6,114.7,117.3,113.1,113.6z"/>
	<path fill="#4A617C" d="M1213.9,135.6c-2.9,0.6-3.8-0.5-2.6-3.5c1-2.5,1.9-5,2.7-7.5c0.5-1.5,1.3-2,2.9-1.9c5.7,0.3,6.1,0.7,3.5,6
		C1219,131.5,1219.3,136.2,1213.9,135.6z"/>
	<path fill="#4A617C" d="M1247.8,93.1c4.7-0.5,4.9,1.7,2.8,5.4c-1.8,3.2-1.8,8.2-7.6,7.2c-1.5-0.2-2.7-0.2-2-2.2
		c1.1-3.1,2.1-6.3,3.2-9.4C1244.8,92.4,1246.1,92.6,1247.8,93.1z"/>
	<path fill="#4A617C" d="M860.7,19.6c-2.5,0.5-3.9-0.7-4.7-3.1c-0.5-1.6-1.5-3-1.9-4.6c-0.4-1.4-2.8-3.7-0.1-4.3
		c2.2-0.5,5.9-3.3,7.2,1.8c0.5,2.2,1.4,4.4,2.3,6.5C864.7,18.9,864,20.1,860.7,19.6z"/>
	<path fill="#4A617C" d="M869.7,21.1c4.5-0.5,5.4,1.5,3,5.3c-1.8,2.9-1.3,7.9-7,7.4c-2.4-0.2-3.4-0.7-2.5-3.2
		c0.9-2.5,1.9-4.9,2.6-7.5C866.5,21.1,867.4,20.2,869.7,21.1z"/>
	<path fill="#4A617C" d="M852.1,40.6c-2.5,0.3-3.9-0.4-2.6-3.6c0.8-1.8,1.3-3.8,2-5.6c1.3-3.6,4.3-4.7,7.6-2.9
		c0.4,0.2,0.8,0.6,0.9,0.9C860.9,32.1,855.1,40.6,852.1,40.6z"/>
</g>
</svg>
