<?xml version="1.0"?>
<svg xmlns="http://www.w3.org/2000/svg" xmlns:xlink="http://www.w3.org/1999/xlink" version="1.1" id="Capa_1" x="0px" y="0px" viewBox="0 0 512 512" style="enable-background:new 0 0 512 512;" xml:space="preserve" width="512px" height="512px"><g><g>
	<g>
		<g>
			<path d="M432,34.439H80c-44.112,0-80,35.888-80,80v216c0,44.112,35.888,80,80,80h164c11.046,0,20-8.954,20-20     c0-11.046-8.954-20-20-20H80c-22.056,0-40-17.944-40-40V180.561h432v30c0,11.045,8.954,20,20,20c11.046,0,20-8.955,20-20v-96.122     C512,70.327,476.112,34.439,432,34.439z M472,140.561H40v-26.122c0-22.056,17.944-40,40-40h352c22.056,0,40,17.944,40,40V140.561     z" data-original="#000000" class="active-path" data-old_color="#B700FF" fill="#002147"/>
			<path d="M467.983,307.931V291.56c0-32.525-26.916-58.986-60-58.986c-33.084,0-60,26.461-60,58.986v16.375     C323.241,310.918,304,332.028,304,357.561v100c0,11.046,8.954,20,20,20h168c11.046,0,20-8.954,20-20v-100     C512,332.016,492.741,310.899,467.983,307.931z M387.983,291.56c0-10.468,8.972-18.986,20-18.986c11.028,0,20,8.517,20,18.986v16     h-40V291.56z M472,437.561H344v-80c0-5.514,4.486-10,10-10h108c5.514,0,10,4.486,10,10V437.561z" data-original="#000000" class="active-path" data-old_color="#B700FF" fill="#002147"/>
		</g>
	</g>
</g></g> </svg>
