<?xml version="1.0" encoding="utf-8"?>
<!-- Generator: Adobe Illustrator 18.1.1, SVG Export Plug-In . SVG Version: 6.00 Build 0)  -->
<svg version="1.1" id="Слой_1" xmlns="http://www.w3.org/2000/svg" xmlns:xlink="http://www.w3.org/1999/xlink" x="0px" y="0px" width="48px" height="48px"
	 viewBox="59.8 11.7 350.9 476.6" enable-background="new 59.8 11.7 350.9 476.6" xml:space="preserve">
<g>
	<path fill="#FFFFFF" d="M235.3,479.3c-0.2,0-0.4-0.1-0.6-0.3c-24.5-28.5-107.9-128.9-151.4-224c-9.6-21.1-14.5-44-14.5-67.9
		c0-91.8,74.7-166.5,166.5-166.5c91.8,0,166.5,74.7,166.5,166.5c0,23.9-4.9,46.8-14.5,67.9c-43.4,95-126.8,195.5-151.4,224
		C235.7,479.2,235.5,479.3,235.3,479.3z"/>
	<path fill="#001643" d="M235.3,29.7c86.8,0,157.5,70.6,157.5,157.5c0,22.6-4.6,44.2-13.7,64.1c-39.8,87.1-113.8,179-143.8,214.5
		c-30-35.5-103.9-127.4-143.8-214.5c-9.1-19.9-13.7-41.5-13.7-64.2C77.8,100.3,148.4,29.7,235.3,29.7 M235.3,11.7
		c-96.8,0-175.5,78.7-175.5,175.5c0,25.2,5.2,49.3,15.3,71.6c43.9,96,128,197.4,152.7,226.1c1.9,2.2,4.6,3.4,7.4,3.4
		c2.8,0,5.5-1.2,7.4-3.4c24.7-28.8,108.8-130.1,152.7-226.1c10.2-22.3,15.3-46.4,15.3-71.6C410.7,90.4,332,11.7,235.3,11.7
		L235.3,11.7z"/>
</g>
<g>
	<path fill="#C52327" d="M235.7,328.2c78,0,141.6-63.6,141.6-141.6S313.7,45,235.7,45S94.1,108.6,94.1,186.6
		S157.7,328.2,235.7,328.2z"/>
	<path fill="#001643" d="M274.4,50.3c59.4,16.8,102.9,71.5,102.9,136.2c0,65.7-44.8,121-105.5,137v-78L243.9,258l-21.5-78l18.2-63.2
		l28.3,4.1l5.4,6.8L274.4,50.3L274.4,50.3z"/>
	<path fill="#FFFFFF" d="M251.8,138.7c-1.3,3.1-2.7,6.4-4.2,10c-1.5,3.6-3,7.2-4.5,10.9c-1.5,3.7-3,7.2-4.5,10.7
		c-1.5,3.5-2.9,6.6-4.2,9.5c1.7,1.4,3.8,3.8,6.3,7.4c2.5,3.6,5,8.2,7.4,13.7c2.5,5.6,4.8,12.1,6.9,19.5c2.1,7.4,3.8,15.8,4.8,25.1
		h12v34.7h-55v-34.7h10.4c-0.9-7.7-2.3-14.8-4.2-21.3c-2-6.5-4.3-12.4-7.1-17.8c-1.3-2.5-2.6-4.4-4.1-5.6c-1.4-1.2-3.8-1.9-7.3-1.9
		h-14.6v46.6h10.7v34.7h-55.7v-34.7h12.3V127.7h-12.3V92.9h57v34.7h-12v50.7h9.4c2.6-4.1,5.1-8.9,7.6-14.5
		c2.5-5.6,4.9-11.4,7.3-17.4c2.4-6,4.7-12,7.1-18c2.4-6,4.8-11.3,7.4-15.9c2.6-5,6.8-9.5,12.6-13.6c5.8-4.1,13.3-6.1,22.4-6.1h10.7
		v34.7h-3.6c-5,0-8.9,0.7-11.6,2.2C256.4,131.3,253.9,134.2,251.8,138.7z"/>
	<path fill="#FFFFFF" d="M293.1,203.9c-7.9,0-14.7,0-22.4,0c-0.5,39.9,73.4,39.3,73.4,1.2c0-22.7-17.6-25.4-35.6-27.3
		c-8.2-0.9-14.9-2.3-14.4-9.2c0.8-10.7,25.1-11.8,25.1,0.3c7.9,0,13.9,0,22.1,0c0.5-39.1-70-39.1-69.2,0
		c0.3,19.7,13.2,26.4,32.9,27.9c9.1,0.5,16.6,2,16.6,8.3C321.5,215.6,293.1,215.4,293.1,203.9z"/>
</g>
</svg>
