<?xml version="1.0" encoding="utf-8"?>
<!-- Generator: Adobe Illustrator 22.1.0, SVG Export Plug-In . SVG Version: 6.00 Build 0)  -->
<svg version="1.1" id="Слой_1" xmlns="http://www.w3.org/2000/svg" xmlns:xlink="http://www.w3.org/1999/xlink" x="0px" y="0px"
	 viewBox="0 0 469 469" style="enable-background:new 0 0 469 469;" xml:space="preserve">
<style type="text/css">
	.st0{fill:none;stroke:#CACACA;stroke-width:20;stroke-miterlimit:10;}
	.st1{fill:#002147;}
	.st2{fill:#B80000;}
</style>
<circle class="st0" cx="234.5" cy="234.5" r="224.5"/>
<g>
	<path class="st1" d="M237.5,75.7c-88.9,0-161,72.1-161,161s72.1,161,161,161s161-72.1,161-161C398.4,147.8,326.4,75.8,237.5,75.7z
		 M244.5,383.5v-28.3c0-3.8-3.1-6.9-6.9-6.9c-3.8,0-6.9,3.1-6.9,6.9v28.3C155,379.9,94.4,319.3,90.8,243.6H119
		c3.8,0,6.9-3.1,6.9-6.9s-3.1-6.9-6.9-6.9H90.7c3.6-75.8,64.2-136.4,139.9-140v28.3c0,3.8,3.1,6.9,6.9,6.9c3.8,0,6.9-3.1,6.9-6.9
		V89.8c75.7,3.6,136.3,64.2,139.9,139.9H356c-3.8,0-6.9,3.1-6.9,6.9s3.1,6.9,6.9,6.9h0.1h28.3C380.8,319.3,320.2,379.9,244.5,383.5z
		"/>
	<path class="st2" d="M310.4,300.9l-66-67.1v-69.7c0-3.8-3.1-6.9-6.9-6.9s-6.9,3.1-6.9,6.9v72.5c0,1.8,0.7,3.5,2,4.8l67.9,69.1
		c2.7,2.7,7,2.8,9.8,0.1C313,308,313.1,303.6,310.4,300.9z"/>
</g>
</svg>
