<?xml version="1.0" encoding="utf-8"?>
<!-- Generator: Adobe Illustrator 18.1.1, SVG Export Plug-In . SVG Version: 6.00 Build 0)  -->
<svg version="1.1" id="Слой_1" xmlns="http://www.w3.org/2000/svg" xmlns:xlink="http://www.w3.org/1999/xlink" x="0px" y="0px"
	 viewBox="0 0 500 500" enable-background="new 0 0 500 500" xml:space="preserve">
<circle fill="none" stroke="#CACACA" stroke-width="20" stroke-miterlimit="10" cx="250" cy="250" r="239.3"/>
<g id="XMLID_28_">
	<path id="XMLID_31_" fill="#B80000" d="M241.8,152.5c17.1,0,30.8-13.8,30.8-30.8s-13.9-30.8-30.8-30.8c-17.1,0-30.8,13.8-30.8,30.8
		C211,138.7,224.8,152.5,241.8,152.5z"/>
	<path id="XMLID_30_" fill="#0E2346" d="M289.5,327.3c-8.2,28.4-34.5,49.4-65.5,49.4c-37.6,0-68.2-30.6-68.2-68.2
		c0-27.8,16.8-51.8,40.8-62.4v-28.9c-39.3,11.7-67.9,48.1-67.9,91.1c0,52.6,42.8,95.4,95.4,95.4c38.3,0,71.3-22.7,86.5-55.4
		l-10.7-21.1C296.7,327.2,293.2,327.2,289.5,327.3z"/>
	<path id="XMLID_29_" fill="#B80000" d="M379.4,363.9l-41.3-81.2c-3.1-6-9.3-9.9-16.2-9.9H269v-12.1h45.6c4.5,0,8.4-2.4,10.8-5.8
		c1.6-2.2,2.8-4.8,2.8-7.8c0-7.5-6-13.6-13.6-13.6h-27.5H269v-41c0-11.3-8.4-27.2-27.2-27.2c-15,0-27.2,12.2-27.2,27.2v88.7
		c0,15.3,12.4,27.7,27.7,27.7h49.8h18.7l36.2,71.3c3.2,6.3,9.6,9.9,16.2,9.9c2.8,0,5.6-0.6,8.2-2
		C380.3,383.7,383.9,372.8,379.4,363.9z"/>
</g>
</svg>
