<?xml version="1.0" encoding="utf-8"?>
<!-- Generator: Adobe Illustrator 22.1.0, SVG Export Plug-In . SVG Version: 6.00 Build 0)  -->
<svg version="1.1" id="Слой_1" xmlns="http://www.w3.org/2000/svg" xmlns:xlink="http://www.w3.org/1999/xlink" x="0px" y="0px"
	 viewBox="0 0 469 469" style="enable-background:new 0 0 469 469;" xml:space="preserve">
<style type="text/css">
	.st0{fill:none;stroke:#CACACA;stroke-width:20;stroke-miterlimit:10;}
	.st1{fill:#B80000;}
	.st2{clip-path:url(#SVGID_2_);fill:#002147;}
	.st3{fill:#FFFFFF;}
</style>
<circle class="st0" cx="234.5" cy="234.5" r="224.5"/>
<g>
	<g>
		<g>
			<path id="LIFECELL_1_" class="st1" d="M75.7,235.5c0,89,72.3,161.2,161.2,161.2s161.2-72.3,161.2-161.2
				c0.5-89-71.8-161.2-161.2-161.2C148,74.3,75.7,146.5,75.7,235.5"/>
		</g>
		<g>
			<g>
				<g>
					<defs>
						<path id="SVGID_1_" d="M75.7,235.5c0,89,72.3,161.2,161.2,161.2s161.2-72.3,161.2-161.2c0.5-89-71.8-161.2-161.2-161.2
							C148,74.3,75.7,146.5,75.7,235.5"/>
					</defs>
					<clipPath id="SVGID_2_">
						<use xlink:href="#SVGID_1_"  style="overflow:visible;"/>
					</clipPath>
					<rect x="75.7" y="74.3" class="st2" width="322.9" height="322.9"/>
				</g>
			</g>
		</g>
	</g>
	<path class="st3" d="M103.5,235.5c0-74.1,59.8-133.9,133.9-133.9s133.9,59.8,133.9,133.9s-59.8,133.9-133.9,133.9
		c-14.8,0-28.7-2.3-41.7-6.5c9.7-55.1,44.5-100.1,90.4-119.5c5.6,6.5,13.4,10.2,22.7,10.2c16.2,0,29.6-13.4,29.6-29.6
		s-13.4-29.6-29.6-29.6s-29.6,13.4-29.6,29.6c-58.8,17.6-106.6,58.8-130.7,111.7c-7.9-6.9-14.4-14.4-20.4-23.2
		c1.4-51.4,26.8-96.4,64.8-122.8c5.6,6,13.4,10.2,22.2,10.2c16.2,0,29.6-13.4,29.6-29.6c0-16.7-13.4-29.6-29.6-29.6
		s-29.6,13.4-29.6,29.6c0,0.9,0,1.8,0,2.8c-35.2,12.5-64.4,37.1-81.5,68.6C103.5,239.2,103.5,237.3,103.5,235.5"/>
</g>
</svg>
