<?xml version="1.0" encoding="utf-8"?>
<!-- Generator: Adobe Illustrator 18.1.1, SVG Export Plug-In . SVG Version: 6.00 Build 0)  -->
<svg version="1.1" id="Слой_1" xmlns="http://www.w3.org/2000/svg" xmlns:xlink="http://www.w3.org/1999/xlink" x="0px" y="0px"
	 viewBox="0 0 500 500" enable-background="new 0 0 500 500" xml:space="preserve">
<circle fill="none" stroke="#CACACA" stroke-width="20" stroke-miterlimit="10" cx="250" cy="250" r="239.3"/>
<g>
	<g>
		<g>
			<path fill="#B80000" d="M250,86.9c-68.3,0-123.8,55.5-123.8,123.8c0,23.1,6.4,45.6,18.5,65.1L243,434.2c1.9,3,5.2,4.9,8.8,4.9
				c0,0,0.1,0,0.1,0c3.6,0,6.9-1.9,8.8-5l95.8-159.9c11.4-19.1,17.5-41,17.5-63.4C373.8,142.5,318.3,86.9,250,86.9z M338.6,263.5
				l-87.1,145.4l-89.3-144c-10.1-16.3-15.5-35-15.5-54.2c0-56.9,46.4-103.3,103.3-103.3s103.2,46.4,103.2,103.3
				C353.2,229.4,348.1,247.6,338.6,263.5z"/>
		</g>
	</g>
	<g>
		<g>
			<path fill="#0F2345" d="M250,148.8c-34.1,0-61.9,27.8-61.9,61.9c0,33.9,27.3,61.9,61.9,61.9c35,0,61.9-28.4,61.9-61.9
				C311.9,176.6,284.1,148.8,250,148.8z M250,252.1c-22.9,0-41.4-18.6-41.4-41.4c0-22.8,18.6-41.4,41.4-41.4s41.3,18.6,41.3,41.4
				C291.3,233.2,273.2,252.1,250,252.1z"/>
		</g>
	</g>
</g>
</svg>
