<?xml version="1.0" encoding="utf-8"?>
<!-- Generator: Adobe Illustrator 22.1.0, SVG Export Plug-In . SVG Version: 6.00 Build 0)  -->
<svg version="1.1" id="Слой_1" xmlns="http://www.w3.org/2000/svg" xmlns:xlink="http://www.w3.org/1999/xlink" x="0px" y="0px"
	 viewBox="0 0 469 469" style="enable-background:new 0 0 469 469;" xml:space="preserve">
<style type="text/css">
	.st0{fill:none;stroke:#CACACA;stroke-width:20;stroke-miterlimit:10;}
	.st1{fill:#002147;}
	.st2{fill:#B80000;}
</style>
<circle class="st0" cx="234.5" cy="234.5" r="224.5"/>
<g>
	<g>
		<path class="st1" d="M309.4,281c-9.4-9.3-21.1-9.3-30.5,0c-7.1,7.1-14.3,14.1-21.3,21.3c-1.9,2-3.5,2.4-5.9,1.1
			c-4.6-2.5-9.5-4.6-14-7.3c-20.7-13-38-29.7-53.3-48.5c-7.6-9.3-14.4-19.3-19.1-30.6c-1-2.3-0.8-3.8,1.1-5.6
			c7.1-6.9,14.1-14,21.1-21c9.8-9.8,9.8-21.3-0.1-31.2c-5.6-5.6-11.1-11.1-16.7-16.8c-5.7-5.7-11.4-11.6-17.2-17.2
			c-9.4-9.2-21.1-9.2-30.5,0.1c-7.2,7.1-14.1,14.3-21.4,21.3c-6.8,6.4-10.2,14.3-10.9,23.4c-1.1,14.9,2.5,29,7.7,42.7
			c10.5,28.4,26.6,53.6,46,76.7c26.3,31.3,57.7,56,94.4,73.8c16.5,8,33.7,14.2,52.3,15.2c12.8,0.7,24-2.5,32.9-12.5
			c6.1-6.8,13-13.1,19.5-19.6c9.6-9.7,9.6-21.4,0.1-31C332.3,303.7,320.8,292.4,309.4,281z"/>
		<path class="st2" d="M298,233.3l22.1-3.8c-3.5-20.3-13.1-38.7-27.6-53.3c-15.4-15.4-34.9-25.1-56.3-28.1l-3.1,22.2
			c16.6,2.3,31.7,9.8,43.6,21.7C287.9,203.3,295.3,217.6,298,233.3z"/>
		<path class="st2" d="M332.5,137.2c-25.5-25.5-57.8-41.6-93.4-46.6l-3.1,22.2c30.8,4.3,58.7,18.3,80.7,40.2
			c20.9,20.9,34.6,47.3,39.6,76.3l22.1-3.8C372.6,192,356.7,161.5,332.5,137.2z"/>
	</g>
</g>
</svg>
