<?xml version="1.0" encoding="utf-8"?>
<!-- Generator: Adobe Illustrator 18.1.1, SVG Export Plug-In . SVG Version: 6.00 Build 0)  -->
<svg version="1.1" id="Слой_1" xmlns="http://www.w3.org/2000/svg" xmlns:xlink="http://www.w3.org/1999/xlink" x="0px" y="0px"
	 viewBox="0 0 500 500" enable-background="new 0 0 500 500" xml:space="preserve">
<circle fill="none" stroke="#CACACA" stroke-width="20" stroke-miterlimit="10" cx="250" cy="250" r="239.3"/>
<g>
	<g>
		<g>
			<path fill="#0E2346" d="M301.6,354.7H155.8c-16,0-29-13-29-29c0-16,13-29,29-29h56.8c25.8,0,46.7-21,46.7-46.7
				s-21-46.7-46.7-46.7h-31c0.6,2.9,0.9,5.8,0.9,8.9c0,3-0.3,6-0.9,8.9h31c16,0,29,13,29,29s-13,29-29,29h-56.8
				c-25.8,0-46.7,21-46.7,46.7c0,25.8,21,46.7,46.7,46.7h145.8c-0.6-2.9-0.9-5.8-0.9-8.9S301,357.6,301.6,354.7z"/>
		</g>
	</g>
	<g>
		<g>
			<path fill="#B80000" d="M346.3,335.8c-15.3,0-27.8,12.5-27.8,27.8s12.5,27.8,27.8,27.8c15.3,0,27.8-12.5,27.8-27.8
				S361.6,335.8,346.3,335.8z"/>
		</g>
	</g>
	<g>
		<g>
			<path fill="#0E2346" d="M193.7,108.7h-56.8c-4.9,0-8.9,4-8.9,8.9c0,7.3,0,60.9,0,68.3c-11,3.7-18.9,14.1-18.9,26.3
				c0,15.3,12.5,27.8,27.8,27.8s27.8-12.5,27.8-27.8c0-12.2-7.9-22.6-18.9-26.3v-21.6h47.9c4.9,0,8.9-4,8.9-8.9v-37.9
				C202.5,112.6,198.6,108.7,193.7,108.7z"/>
		</g>
	</g>
	<g>
		<g>
			<path fill="#B80000" d="M346.3,127.6c-36.2,0-65.6,29.4-65.6,65.6c0,19.5,8.5,37.8,23.4,50.3l34.3,67.3c3.3,6.4,12.5,6.4,15.8,0
				l34.3-67.3c14.9-12.5,23.4-30.7,23.4-50.3C411.9,157,382.5,127.6,346.3,127.6z M346.3,221c-15.3,0-27.8-12.5-27.8-27.8
				s12.5-27.8,27.8-27.8c15.3,0,27.8,12.5,27.8,27.8S361.6,221,346.3,221z"/>
		</g>
	</g>
</g>
</svg>
