<?xml version="1.0" encoding="utf-8"?>
<!-- Generator: Adobe Illustrator 22.1.0, SVG Export Plug-In . SVG Version: 6.00 Build 0)  -->
<svg version="1.1" id="Слой_1" xmlns="http://www.w3.org/2000/svg" xmlns:xlink="http://www.w3.org/1999/xlink" x="0px" y="0px"
	 viewBox="0 0 469 469" style="enable-background:new 0 0 469 469;" xml:space="preserve">
<style type="text/css">
	.st0{fill:none;stroke:#CACACA;stroke-width:20;stroke-miterlimit:10;}
	.st1{fill:#002147;}
</style>
<circle class="st0" cx="234.5" cy="234.5" r="224.5"/>
<path class="st1" d="M300.4,87.3c-29,6.3-50.8,32.2-50.8,63.3c0,0.7,0.2,1.4,0.2,2.1c45.7,9.7,68.8,40.8,68.8,81.8
	c0,45.9-37.3,83.2-83,83.2s-88.3-38.2-88.3-95.3c0-69.5,59.1-134.7,143.2-136.5c1.6,0,3.9,0,6.5,0.2C278.7,79,258.5,75,237.4,75
	C147,75,73.8,146.4,73.8,234.5S147,394,237.4,394S401,322.6,401,234.5C400.8,168.2,359.3,111.4,300.4,87.3L300.4,87.3z"/>
</svg>
