<?xml version="1.0" encoding="utf-8"?>
<!-- Generator: Adobe Illustrator 22.1.0, SVG Export Plug-In . SVG Version: 6.00 Build 0)  -->
<svg version="1.1" id="Слой_1" xmlns="http://www.w3.org/2000/svg" xmlns:xlink="http://www.w3.org/1999/xlink" x="0px" y="0px"
	 viewBox="0 0 119 41" style="enable-background:new 0 0 119 41;" xml:space="preserve">
<style type="text/css">
	.st0{fill:#002147;}
	.st1{fill:#221F20;}
</style>
<title>logo intime</title>
<desc>Created with Sketch.</desc>
<g id="Symbols">
	<g id="logo" transform="translate(-20.000000, -20.000000)">
		<g id="logo-intime" transform="translate(20.000000, 20.000000)">
			<polygon id="Page-1" class="st0" points="14.9,0.2 0.3,14.8 0.3,40 31.9,40 46.5,25.5 46.6,0.8 46.6,0.2 			"/>
			<path id="Combined-Shape" class="st1" d="M87.6,19L83,27.6v-9.2h-6.1v18h5.7c0.3,0,0.7-0.2,0.8-0.5l4.8-8.7v9.1h6.1v-18h-5.8
				C88.1,18.4,87.8,18.6,87.6,19z M85.5,16.8c-3.1,0-5.6-2.3-5.6-5.3h3.8c0,1.1,0.5,2.1,1.8,2.1c1.4,0,1.8-1,1.8-2.1h3.8
				C91.1,14.4,88.6,16.8,85.5,16.8z M57.4,18.4h-4.7h-6.2h-4.8v5.4h4.8v12.6h6.2V23.8h4.8V18.4z M69.8,36.4h5.9L69.3,19
				c-0.1-0.3-0.4-0.5-0.7-0.5h-5.9c-0.3,0-0.6,0.2-0.7,0.5l-6.5,17.5h5.9c0.2,0,0.3-0.1,0.4-0.3l0.7-2h6.4l0.7,2
				C69.5,36.3,69.7,36.4,69.8,36.4z M63.8,29.7l1.8-5.3l1.8,5.3H63.8z M112.2,18.9l-4.3,7.3l-4.3-7.3c-0.2-0.3-0.5-0.4-0.8-0.4h-5.7
				v18h6.2v-8.5l2.8,4.5c0.1,0.1,0.2,0.2,0.4,0.2h2.8c0.2,0,0.3-0.1,0.4-0.2l2.8-4.5v8.5h6.2v-18H113
				C112.7,18.4,112.4,18.6,112.2,18.9z M12.9,18.4h6v6.4h5v-6.4h6v18h-6V30h-5v6.4h-6V18.4z M4,36.4h6.4v-18H4V36.4z"/>
		</g>
	</g>
</g>
</svg>
