<?xml version="1.0" encoding="utf-8"?>
<!-- Generator: Adobe Illustrator 22.1.0, SVG Export Plug-In . SVG Version: 6.00 Build 0)  -->
<svg version="1.1"
	 id="svg4154" inkscape:version="0.48.4 r9939" sodipodi:docname="New document 4" xmlns:cc="http://creativecommons.org/ns#" xmlns:dc="http://purl.org/dc/elements/1.1/" xmlns:inkscape="http://www.inkscape.org/namespaces/inkscape" xmlns:rdf="http://www.w3.org/1999/02/22-rdf-syntax-ns#" xmlns:sodipodi="http://sodipodi.sourceforge.net/DTD/sodipodi-0.dtd" xmlns:svg="http://www.w3.org/2000/svg"
	 xmlns="http://www.w3.org/2000/svg" xmlns:xlink="http://www.w3.org/1999/xlink" x="0px" y="0px" viewBox="0 0 210 75"
	 style="enable-background:new 0 0 210 75;" xml:space="preserve">
<style type="text/css">
	.st0{fill:#002147;}
</style>
<sodipodi:namedview  bordercolor="#ffffff" borderopacity="0.0" fit-margin-bottom="0" fit-margin-left="0" fit-margin-right="0" fit-margin-top="0" id="base" inkscape:current-layer="layer1" inkscape:cx="143.44787" inkscape:cy="42.853093" inkscape:document-units="px" inkscape:pageopacity="0.0" inkscape:pageshadow="0" inkscape:window-height="746" inkscape:window-maximized="1" inkscape:window-width="1366" inkscape:window-x="-8" inkscape:window-y="-8" inkscape:zoom="2.8" pagecolor="#ffffff" showgrid="false">
	</sodipodi:namedview>
<g id="layer1" transform="translate(4.262008e-7,-977.36217)" inkscape:groupmode="layer" inkscape:label="Layer 1">
	<g id="g4203" transform="matrix(0.96810443,0,0,0.96385545,77.339874,1074.5475)">
		<path id="path3433" inkscape:connector-curvature="0" class="st0" d="M15.1-87.6c0,0,0,0,4.6,0c1.7,0,2.5,0.8,2.5,2.7
			c0,0,0,0,0,6.6c0,0,0,0,8.9,0c0,0,0,0,0-6.6c0-1.9,0.8-2.7,2.7-2.7c0,0,0,0,4.4,0c0,0,0,0,0,4.3c0,0,0,0-1.9,0l-0.2,0.2
			c0,0,0,0,0,18.6c0,0,0,0-5,0c0,0,0,0,0-9.3c0,0,0,0-8.9,0c0,0,0,0,0,9.3c0,0,0,0-5,0c0,0,0,0,0-18.6c0,0,0-0.2-0.2-0.2
			c0,0,0,0-1.9,0C15.1-83.3,15.1-83.3,15.1-87.6z"/>
		<path id="path3435" inkscape:connector-curvature="0" class="st0" d="M51.2-88l0.1,0v4.8l-0.1,0c-3.7,0-6.7,3.1-6.7,7
			c0,4.1,2.9,7.4,6.7,7.4l0.1,0v4.8l-0.1,0c-6.7,0-12.1-5.4-12.1-12.2C39.2-82.9,44.6-88,51.2-88L51.2-88z"/>
		<path id="path3437" inkscape:connector-curvature="0" class="st0" d="M51.3-88l2.3,0.2c5.5,1.1,9.6,5.8,9.6,11.5
			c0,5.9-4.1,10.8-9.6,11.9l-2.3,0.2v-4.8l2.5-0.6c2.5-1.1,4.2-3.8,4.2-6.8c0-2.9-1.8-5.4-4.2-6.5l-2.5-0.5
			C51.3-83.3,51.3-88,51.3-88z"/>
		<path id="path3439" inkscape:connector-curvature="0" class="st0" d="M64.3-87.6c0,0,0,0,7,0h3.3v4.3h-0.3c-0.4,0-1.3,0-2.9,0
			c0,0,0,0,0,4.8c0,0,0,0,1.4,0h1.8v4.1h-1.1c-0.5,0-1.2,0-2.2,0c0,0,0,0,0,5.2c0,0.2,0,0.2,0.2,0.2c0,0,0,0,1.5,0h1.5v4.5h-0.4
			c-0.8,0-2.3,0-5.3,0c-1.7,0-2.5-0.8-2.5-2.7v-16.1c0,0,0,0-2.1,0C64.3-83.3,64.3-83.3,64.3-87.6z"/>
		<path id="path3441" inkscape:connector-curvature="0" class="st0" d="M74.6-87.6L74.6-87.6c4.7,0,7.4,2.5,7.4,6.2
			c0,2.3-1,3.7-2.1,4.8c1.9,0.8,3.1,2.9,3.1,5.2c0,4.3-3.3,7-8.1,7c0,0,0,0-0.1,0h-0.2V-69h0.5c1.7,0,2.7-1,2.7-2.7
			s-1.1-2.7-2.7-2.7c0,0,0,0-0.5,0h-0.1v-4.1h0.1c1.5,0,2.3-1,2.3-2.5c0-1.4-0.8-2.3-2.3-2.3c0,0,0,0-0.1,0h-0.1
			C74.6-83.3,74.6-87.6,74.6-87.6z"/>
		<path id="path3443" inkscape:connector-curvature="0" class="st0" d="M92.6-87.6c0,0,0,0,2.1,0h0.4v6.6c-0.2,0.4-0.4,1-0.4,1.7
			c0,0,0,0-1.7,4.8c0,0,0,0,1.8,0h0.3v4.3h-1.1c-0.6,0-1.4,0-2.2,0c0,0,0,0-1.5,3.7c-0.4,1.4-1.2,2.1-2.9,2.1c0,0,0,0-3.1,0
			c0,0,0,0,0-4.5c0,0,0,0,1,0c0.4,0,0.4,0,0.6-0.2C85.9-69.3,85.9-69.3,92.6-87.6z"/>
		<path id="path3445" inkscape:connector-curvature="0" class="st0" d="M95.1-87.6h2.5c0,0,0,0,6.6,18.4c0.2,0.2,0.2,0.2,0.6,0.2
			c0,0,0,0,0.8,0c0,0,0,0,0,4.5c0,0,0,0-2.9,0c-1.7,0-2.5-0.6-2.9-2.3c0,0,0,0-1.4-3.5c0,0,0,0-2.8,0h-0.5v-4.3h2.1c0,0,0,0-1.7-4.8
			c0-0.6-0.2-1.2-0.4-1.7C95.1-81,95.1-87.6,95.1-87.6z"/>
		<path id="path3447" inkscape:connector-curvature="0" class="st0" d="M15.1-57.9c0,0,0,0,18.1,0c1.7,0,2.7,0.8,2.7,2.7
			c0,0,0,0,0,15.7c0,0.2,0,0.2,0.2,0.2c0,0,0,0,1.7,0c0,0,0,0,0,4.6c0,0,0,0-4.4,0c-1.9,0-2.7-0.8-2.7-2.7c0,0,0,0,0-15.9
			c0,0,0-0.2-0.2-0.2c0,0,0,0-8.3,0c0,0,0,0,0,18.8c0,0,0,0-5,0c0,0,0,0,0-18.8c0,0,0,0-2.1,0C15.1-53.6,15.1-53.6,15.1-57.9z"/>
		<path id="path3449" inkscape:connector-curvature="0" class="st0" d="M50.8-58.3L50.8-58.3l0.1,4.8l-0.1,0c-3.8,0-6.7,3.1-6.7,7
			c0,4.1,2.9,7.4,6.7,7.4l0.1,0v4.8l-0.1,0c-6.7,0-11.9-5.4-11.9-12.2C39-53.2,44.2-58.3,50.8-58.3z"/>
		<path id="path3451" inkscape:connector-curvature="0" class="st0" d="M50.9-58.3l2.4,0.2c5.6,1.1,9.6,5.8,9.6,11.5
			c0,6-4,10.8-9.6,11.9l-2.4,0.2v-4.8l2.6-0.5c2.5-1.1,4.1-3.8,4.1-6.8c0-3-1.6-5.4-4.1-6.5l-2.6-0.5V-58.3z"/>
		<path id="path3453" inkscape:connector-curvature="0" class="st0" d="M63.9-57.9c0,0,0,0,4.6,0c1.7,0,2.5,0.8,2.5,2.7
			c0,0,0,0,0,15.7c0,0.2,0,0.2,0.2,0.2c0,0,0,0,6,0c0,0,0,0,0-18.6c0,0,0,0,5,0c0,0,0,0,0,18.6c0,0,0,0,6,0c0.2,0,0.2,0,0.2-0.2
			c0,0,0,0,0-15.7c0-1.9,0.8-2.7,2.5-2.7c0,0,0,0,4.6,0c0,0,0,0,0,4.3c0,0,0,0-1.9,0c-0.2,0-0.2,0.2-0.2,0.2s0,0,0,15.9
			c0,1.9-0.8,2.7-2.5,2.7c0,0,0,0-22.2,0c-1.9,0-2.7-0.8-2.7-2.7c0,0,0,0,0-15.9c0,0,0-0.2-0.2-0.2c0,0,0,0-1.9,0
			C63.9-53.6,63.9-53.6,63.9-57.9z"/>
		<path id="path3455" inkscape:connector-curvature="0" class="st0" d="M99.4-57.9c0,0,0,0,15.6,0c1.9,0,2.5,0.8,2.5,2.5
			c0,0,0,0,0,3.9h-4.6c0,0,0,0,0-1.8c0-0.2,0-0.2-0.2-0.2c0,0,0,0-2.9,0c0,0,0,0,0,18.8c0,0,0,0-5,0c0,0,0,0,0-18.8c0,0,0,0-2.9,0
			c-0.2,0-0.2,0-0.2,0.2c0,0,0,0,0,1.8c0,0,0,0-4.6,0c0,0,0,0,0-3.9C97.1-57.1,97.8-57.9,99.4-57.9z"/>
		<path id="path3457" inkscape:connector-curvature="0" class="st0" d="M123.9-57.9c0,0,0,0,2.1,0h0.4v6.6c-0.2,0.4-0.4,1-0.4,1.7
			c0,0,0,0-1.7,4.8c0,0,0,0,1.8,0h0.3v4.3h-1.1c-0.6,0-1.4,0-2.2,0c0,0,0,0-1.4,3.5c-0.4,1.7-1.3,2.3-2.9,2.3c0,0,0,0-3.1,0
			c0,0,0,0,0-4.6c0,0,0,0,1,0c0.4,0,0.4,0,0.6-0.2C117.3-39.5,117.3-39.5,123.9-57.9z"/>
		<path id="path3459" inkscape:connector-curvature="0" class="st0" d="M126.4-57.9h2.5c0,0,0,0,6.7,18.4c0.2,0.2,0.2,0.2,0.6,0.2
			h0.8c0,0,0,0,0,4.6c0,0,0,0-2.9,0c-1.7,0-2.5-0.6-2.9-2.3c0,0,0,0-1.4-3.5c0,0,0,0-2.8,0h-0.5v-4.3h2.1c0,0,0,0-1.7-4.8
			c0-0.6-0.2-1.2-0.4-1.7C126.4-51.3,126.4-57.9,126.4-57.9z"/>
		<path id="path3461" inkscape:connector-curvature="0" class="st0" d="M-17-77.8c0.2-0.1,0.6,0.1,0.9,0.5c0,0,0,0,14.1,13.8
			c0.8,0.8,0.8,2.1,0,2.7c0,0,0,0-14.1,14c-0.3,0.4-0.6,0.5-0.9,0.4c-0.2-0.1-0.4-0.5-0.4-1v-29.5C-17.3-77.4-17.2-77.7-17-77.8z"/>
		<path id="path3463" inkscape:connector-curvature="0" class="st0" d="M-41.1-100.8h1l1,0.4c0,0,0,0,14.5,14.4
			c0.6,0.8,0.4,1.4-0.6,1.4c0,0,0,0-6,0c-1,0-1.9,0.8-1.9,1.9c0,0,0,0,0,10.7c0,1-0.8,1.9-2.1,1.9c0,0,0,0-10.6,0
			c-1,0-1.9-0.8-1.9-1.9c0,0,0,0,0-10.7c0-1-0.8-1.9-1.9-1.9H-56c-1,0-1.3-0.6-0.6-1.4c0,0,0,0,14.6-14.4
			C-42.1-100.4-41.1-100.8-41.1-100.8z"/>
		<path id="path3465" inkscape:connector-curvature="0" class="st0" d="M-63.9-78.1c0.3,0.1,0.4,0.5,0.4,1V-47
			c0,0.5-0.2,0.8-0.4,0.9c-0.3,0.1-0.6,0-1-0.3c0,0,0,0-14.3-14.5c-0.8-0.6-0.8-1.9,0-2.7c0,0,0,0,14.3-14.2
			C-64.5-78.1-64.1-78.2-63.9-78.1z"/>
		<path id="path3467" inkscape:connector-curvature="0" class="st0" d="M-45.8-54.4c0,0,0,0,10.6,0c1.3,0,2.1,0.8,2.1,1.9
			c0,0,0,0,0,11.4c0,1.2,0.8,2.1,1.9,2.1h5.6c1,0,1.5,0.6,0.6,1.2c0,0,0,0-14.1,14.2c-0.4,0.4-0.9,0.6-1.5,0.6c-0.5,0-1-0.2-1.5-0.6
			c0,0,0,0-14.1-14.2c-0.8-0.6-0.4-1.2,0.6-1.2c0,0,0,0,6,0c1,0,1.9-0.8,1.9-2.1c0,0,0,0,0-11.4C-47.7-53.6-46.8-54.4-45.8-54.4z"/>
	</g>
</g>
</svg>
