<svg version="1" xmlns="http://www.w3.org/2000/svg" width="933.333" height="933.333" viewBox="0 0 700.000000 700.000000"><path d="M331.8 1C225.2 6.7 128.3 60 65.2 147.7 47 173 29 208 18.8 238 12.2 257.3 5.6 286.6 3 307.5c-2.9 24-2.9 61 0 85 3.7 29.8 12 61.7 23.4 89.4 31.8 77.5 91.2 141.9 165.7 179.6 31.2 15.8 62.5 26.4 95.4 32.4 42.4 7.6 91.1 7.1 131.5-1.3 22.7-4.8 26.5-5.7 37.4-9.3 69.3-22.2 129.8-65.4 173.6-123.8 37.2-49.6 59.6-105.6 67.7-169 2.4-19.6 2.4-61.5-.1-81-10-78.7-42.4-146.9-96.1-202.4-39-40.3-86.1-70.3-139.5-88.6-23.4-8.1-61.9-15.6-87.2-17-21-1.1-28.8-1.2-43-.5zM267 161.5V205h-30v124h22.9l3.9-6.8c10.1-17.2 20.1-39.8 42.4-95.6 23.6-59.1 32.4-74 53-89.6 18.9-14.4 36.6-18.9 73.6-19H446v87h-9.7c-23.8.1-36.1 6.7-44.8 24-1.8 3.6-9.9 22.2-18 41.5-8 19.2-17.4 41.2-20.7 48.7l-6.1 13.7 5.6 6.1c23 24.8 46.4 83.6 54.7 138 1.2 7.4 2.3 14.5 2.6 15.7.4 2.3.7 2.3 14.9 2.3H439v87H303v-87h25.2l-.7-6.8c-3.5-34.3-21.7-86.7-34.8-100.3-6-6.3-9.1-6.9-34.6-6.9H237v114h27v87H125v-87h31V205h-31v-87h142v43.5zM537.7 234c13.1 1.7 23.1 4.6 34.2 10.1 8.9 4.4 11.8 6.5 19.2 13.8 12.3 12.2 18 24.1 19.5 40.7l.7 7.4h-27.7c-26.3 0-27.6-.1-27.6-1.9 0-6-5.5-12.6-13.5-16.3-4.2-1.9-6.7-2.3-15.5-2.3-15.1 0-24 3.5-29.5 11.7-2.8 4.2-3.4 7.7-2.4 13.5 1.1 5.7 3.6 8.6 10.5 11.8 5.2 2.5 10 3.4 39.9 7.5 28.8 4 43.8 9.5 55.2 20.3 10.9 10.3 16.2 22.9 17 40.7 1.1 22.3-6.1 39.1-22.8 53.4-33.3 28.6-95.9 29.8-132.2 2.5-15.5-11.7-23.9-27.1-26.1-48.2l-.6-5.7h55.9l1 3.5c1.5 5.6 4.7 9.2 11.1 12.4 8.5 4.2 15.6 5.4 28 4.8 12.2-.6 18.1-2.4 23.8-7.3 6.8-5.8 7.8-14.2 2.5-20.5-5.1-6-12.4-8.3-33.8-10.4-38.1-3.9-55.9-10.3-69.4-25.1-10.3-11.2-15.1-25.4-15.1-44.9 0-13.1 1.8-21.3 6.6-31.2 13.8-27.9 52.6-45.1 91.1-40.3z"/></svg>